# xmcd
#
# Track frame offsets: 
#        150
#        16795
#        30592
#        45782
#        58262
#        72985
#        86895
#        97600
#        116162
#        126747
#        137527
#        150520
#        163932
#        180417
#        193582
#        207262
#        218760
#        229560
#        245472
#        258012
#        272682
#        285277
#        296960
#
# Disc length: 4220 seconds
#
# Revision: 0
# Processed by: cddbd v1.5.2PL0 Copyright (c) Steve Scherf et al.
# Submitted via: ExactAudioCopyFreeDBPlugin 1.0
#
DISCID=42107a17
DTITLE=Aretha Franklin - The Classic Aretha Franklin
DYEAR=1998
DGENRE=Soul
TTITLE0=Unforgettable
TTITLE1=My Guy (Album Version)
TTITLE2=Sweet Lover (Album Version)
TTITLE3=Today I Sing The Blues (Single Version)
TTITLE4=Maybe I'm A Fool (Album Version)
TTITLE5=All Night Long (Album Version)
TTITLE6=Nobody Like You (Album Version)
TTITLE7=If Ever I Would Leave You
TTITLE8=Soulville
TTITLE9=The Shoop Shoop Song
TTITLE10=Lee Cross
TTITLE11=Operation Heartbreak
TTITLE12=Misty (Album Version)
TTITLE13=Trouble In Mind (Album Version)
TTITLE14=God Bless The Child (Album Version)
TTITLE15=Runnin' out of Fools
TTITLE16=Muddy Water (Album Version)
TTITLE17=What A Difference A Day Made (Album Version)
TTITLE18=Walk On By
TTITLE19=Try A Little Tenderness
TTITLE20=Every Little Bit Hurts
TTITLE21=Mockingbird
TTITLE22=People
EXTD=
EXTT0=
EXTT1=
EXTT2=
EXTT3=
EXTT4=
EXTT5=
EXTT6=
EXTT7=
EXTT8=
EXTT9=
EXTT10=
EXTT11=
EXTT12=
EXTT13=
EXTT14=
EXTT15=
EXTT16=
EXTT17=
EXTT18=
EXTT19=
EXTT20=
EXTT21=
EXTT22=
PLAYORDER=
